<?xml version="1.0" encoding="utf-8"?>
<!-- Generator: Adobe Illustrator 16.0.0, SVG Export Plug-In . SVG Version: 6.00 Build 0)  -->
<!DOCTYPE svg PUBLIC "-//W3C//DTD SVG 1.1//EN" "http://www.w3.org/Graphics/SVG/1.1/DTD/svg11.dtd">
<svg version="1.1" id="Layer_1" xmlns="http://www.w3.org/2000/svg" xmlns:xlink="http://www.w3.org/1999/xlink" x="0px" y="0px"
	 width="600px" height="114.5px" viewBox="0 0 600 114.5" enable-background="new 0 0 600 114.5" xml:space="preserve">
<g>
	<path fill="#177077" d="M124.492,19.628h33.415c3.446,0.557,6.84,2.385,10.181,5.482c2.576,3.237,4.055,6.979,4.438,11.226v8.093
		c0,2.75-1.219,5.795-3.655,9.137c-1.741,1.323-2.61,2.454-2.61,3.394c5.046,3.481,7.571,6.961,7.571,10.442
		c0.347,0,0.522,0.871,0.522,2.61v10.182c0,5.187-2.437,9.973-7.31,14.358c-2.297,1.462-4.995,2.593-8.093,3.394h-34.982
		c-0.697-0.243-1.044-1.026-1.044-2.35V21.716C122.925,20.325,123.447,19.628,124.492,19.628z M141.199,35.03v15.925l0.522,0.522
		h9.92c1.287-0.522,2.245-1.392,2.872-2.61V38.163c-0.279-2.436-1.497-3.655-3.655-3.655h-9.137L141.199,35.03z M141.199,65.052
		v17.752l1.827,0.262h7.31c3.306,0,4.96-1.393,4.96-4.178v-8.876c0-3.654-1.393-5.481-4.177-5.481h-9.398L141.199,65.052z"/>
	<path fill="#177077" d="M190.7,19.628h25.845c3.098,0.626,6.143,2.454,9.137,5.482c2.61,3.69,3.916,6.648,3.916,8.876l0.261,7.048
		V74.45c0,9.225-0.697,13.836-2.088,13.836c-1.288,3.099-4.072,5.97-8.354,8.615l-2.872,1.044H190.7
		c-4.908-1.636-8.737-4.855-11.486-9.659c-0.871-1.705-1.305-4.315-1.305-7.832V36.858C177.908,28.156,182.171,22.413,190.7,19.628z
		 M196.965,38.163v39.158c0,3.308,1.044,4.961,3.133,4.961c6.613,0.348,9.92-0.522,9.92-2.611l0.261-2.35V38.946
		c0.174-2.61-0.871-4.09-3.133-4.438h-7.832C197.4,35.205,196.617,36.423,196.965,38.163z"/>
	<path fill="#177077" d="M246.205,19.628h25.845c3.098,0.626,6.143,2.454,9.137,5.482c2.61,3.69,3.916,6.648,3.916,8.876
		l0.261,7.048V74.45c0,9.225-0.696,13.836-2.088,13.836c-1.289,3.099-4.073,5.97-8.354,8.615l-2.871,1.044h-25.845
		c-4.908-1.636-8.738-4.855-11.487-9.659c-0.871-1.705-1.305-4.315-1.305-7.832V36.858
		C233.413,28.156,237.676,22.413,246.205,19.628z M252.471,38.163v39.158c0,3.308,1.043,4.961,3.133,4.961
		c6.612,0.348,9.92-0.522,9.92-2.611l0.261-2.35V38.946c0.174-2.61-0.87-4.09-3.133-4.438h-7.831
		C252.904,35.205,252.121,36.423,252.471,38.163z"/>
	<path fill="#177077" d="M289.701,19.628h15.925l0.782,0.783v28.716c0,1.915,1.653,2.872,4.961,2.872c2.436,0,3.915-0.87,4.438-2.61
		l3.394-9.398l3.655-10.442c2.227-6.195,3.619-9.502,4.177-9.92h16.446l0.783,0.783l-5.743,14.88l-4.699,11.486l-1.305,3.655v1.566
		c0,0.871,1.827,2.872,5.482,6.005c1.044,1.427,1.827,4.56,2.349,9.397v27.672c-0.278,1.915-0.713,2.872-1.305,2.872h-15.664
		l-0.782-0.783V71.84c-0.627-4.699-2.193-7.049-4.699-7.049h-6.266c-3.481,0-5.222,0.87-5.222,2.61v29.761l-0.782,0.783h-15.664
		c-0.696-0.243-1.044-1.026-1.044-2.35V20.411L289.701,19.628z"/>
	<path fill="#177077" d="M368.963,19.628h23.495c1.845,0,3.063,2.088,3.655,6.266v34.721l-0.262,5.221l0.783,0.522h7.571v16.708
		h-7.571l-0.783,0.521v14.358h-18.273V83.587l-0.522-0.521h-23.495c-3.829,0-5.743-1.828-5.743-5.482v-7.832
		c0-1.357,2.523-8.318,7.57-20.884l1.306-3.394c1.044-2.402,1.566-4.055,1.566-4.96c2.68-5.917,4.42-10.355,5.221-13.314
		C365.534,22.152,367.361,19.628,368.963,19.628z M376.795,37.641c-0.313,1.775-1.88,6.213-4.699,13.314l-5.482,14.097v1.306h10.442
		l0.522-0.522V43.906l0.261-5.482l-0.261-0.783H376.795z"/>
	<path fill="#177077" d="M407.76,19.628h19.318c1.287,0,3.289,2.872,6.004,8.615l8.354,13.575h0.521
		c8.11-14.549,12.374-21.859,12.792-21.929l1.044-0.261h19.318v0.783c-16.221,27.812-24.4,42.17-24.539,43.074v33.677l-0.783,0.783
		h-16.708l-0.783-0.783V63.485c-0.313-1.253-8.493-15.611-24.539-43.074V19.628z"/>
	<path fill="#177077" d="M491.46,19.628h25.845c3.098,0.626,6.143,2.454,9.137,5.482c2.61,3.69,3.916,6.648,3.916,8.876l0.261,7.048
		V74.45c0,9.225-0.696,13.836-2.088,13.836c-1.289,3.099-4.073,5.97-8.354,8.615l-2.871,1.044H491.46
		c-4.908-1.636-8.737-4.855-11.487-9.659c-0.87-1.705-1.305-4.315-1.305-7.832V36.858C478.668,28.156,482.932,22.413,491.46,19.628z
		 M497.725,38.163v39.158c0,3.308,1.045,4.961,3.133,4.961c6.613,0.348,9.921-0.522,9.921-2.611l0.261-2.35V38.946
		c0.174-2.61-0.87-4.09-3.133-4.438h-7.832C498.16,35.205,497.377,36.423,497.725,38.163z"/>
	<path fill="#177077" d="M536,19.628h16.186c0.696,0.244,1.044,1.027,1.044,2.35l-0.261,56.649c0.905,2.785,2.384,4.177,4.438,4.177
		h5.221c1.287,0,2.593-1.044,3.916-3.133V21.978c0-1.322,0.348-2.105,1.044-2.35h16.186c1.218,0,1.827,0.697,1.827,2.088v58.477
		c0,6.475-3.046,11.695-9.137,15.663l-6.004,2.089h-21.407c-5.778-1.636-9.781-4.246-12.009-7.832c-0.835,0-1.705-3.133-2.61-9.397
		l-0.261-59.26C534.382,20.237,534.99,19.628,536,19.628z"/>
</g>
<g>
	<g>
		<g>
			<polygon fill="#187077" points="107.554,17.605 107.554,99.142 58.243,99.142 58.243,87.493 96.294,87.493 96.294,29.254 
				58.243,29.254 58.243,17.605 			"/>
		</g>
		<g>
			<rect x="58.243" y="52.55" fill="#187077" width="31.839" height="11.647"/>
		</g>
	</g>
	<g>
		<g>
			<polygon fill="#27A0B0" points="89.305,55.655 58.243,64.197 58.243,52.55 89.305,44.008 			"/>
		</g>
		<g>
			<rect x="58.243" y="70.021" fill="#187077" width="31.839" height="11.648"/>
		</g>
		<g>
			<polygon fill="#27A0B0" points="89.305,73.128 58.243,81.67 58.243,70.021 89.305,61.479 			"/>
		</g>
		<g>
			<rect x="58.243" y="34.689" fill="#187077" width="31.839" height="11.647"/>
		</g>
		<g>
			<polygon fill="#27A0B0" points="89.305,37.795 58.243,46.337 58.243,34.689 89.305,26.147 			"/>
		</g>
		<g>
			<polygon fill="#27A0B0" points="106,4.793 106,86.329 58.243,99.142 58.243,87.493 95.517,77.243 95.517,19.003 58.243,29.254 
				58.243,17.605 			"/>
		</g>
	</g>
	<g>
		<polygon fill="#27A0B0" points="19.806,96.229 19.806,110.207 38.054,97.782 		"/>
	</g>
	<g>
		<g>
			<polygon fill="#27A0B0" points="4.663,17.605 4.663,99.142 53.196,99.142 53.196,87.493 15.923,87.493 15.923,29.254 
				53.196,29.254 53.196,17.605 			"/>
		</g>
		<g>
			<rect x="22.135" y="52.55" fill="#27A0B0" width="31.062" height="11.647"/>
		</g>
		<g>
			<rect x="22.135" y="35.077" fill="#27A0B0" width="31.062" height="11.648"/>
		</g>
		<g>
			<rect x="22.135" y="70.021" fill="#27A0B0" width="31.062" height="11.648"/>
		</g>
	</g>
</g>
</svg>
